Coordinates
version=1
nRows=20
nColumns=38
inDegrees=no

Units are S.I. units (second, meters, Newtons, ...)
If the header above contains a line with 'inDegrees', this indicates whether rotational values are in degrees (yes) or radians (no).

endheader
time	pelvis_tilt	pelvis_list	pelvis_rotation	pelvis_tx	pelvis_ty	pelvis_tz	hip_flexion_r	hip_adduction_r	hip_rotation_r	knee_angle_r	ankle_angle_r	subtalar_angle_r	mtp_angle_r	hip_flexion_l	hip_adduction_l	hip_rotation_l	knee_angle_l	ankle_angle_l	subtalar_angle_l	mtp_angle_l	lumbar_extension	lumbar_bending	lumbar_rotation	arm_flex_r	arm_add_r	arm_rot_r	elbow_flex_r	pro_sup_r	wrist_flex_r	wrist_dev_r	arm_flex_l	arm_add_l	arm_rot_l	elbow_flex_l	pro_sup_l	wrist_flex_l	wrist_dev_l
20	2.96289	1.36482	-1.27692	0.660699	-0.186305	0.949867	-0.252807	0.0404833	-0.0506328	0.255067	-0.188818	0	0	-0.223471	-0.100191	-0.0524504	0.328449	-0.136366	0	0	-0.23893	0.0811679	-0.0469517	-0.00656964	-0.320691	0.405687	0.569715	1.5683	0	0	0.0555234	-0.258806	0.437986	0.611473	1.5708	0	0
20.01	2.9647	1.3636	-1.27839	0.660752	-0.186516	0.949977	-0.254361	0.0406943	-0.0508489	0.253854	-0.19033	0	0	-0.224876	-0.100274	-0.0518764	0.327502	-0.137515	0	0	-0.240883	0.0811376	-0.047355	-0.00587363	-0.321852	0.409774	0.570652	1.56299	0	0	0.0564584	-0.259089	0.440103	0.612096	1.5708	0	0
20.02	2.96512	1.3628	-1.27906	0.660856	-0.186588	0.950078	-0.25528	0.0408678	-0.0496526	0.253589	-0.191154	0	0	-0.22617	-0.100494	-0.0523783	0.326315	-0.138288	0	0	-0.242128	0.0811668	-0.0473059	-0.00542983	-0.32267	0.413163	0.571164	1.55739	0	0	0.0568099	-0.258885	0.440952	0.612527	1.5708	0	0
20.03	2.96522	1.36306	-1.27953	0.660989	-0.186658	0.950042	-0.255383	0.0408479	-0.0501629	0.252143	-0.191811	0	0	-0.226043	-0.100463	-0.0528997	0.325925	-0.138586	0	0	-0.242176	0.0808461	-0.0471837	-0.00523853	-0.323249	0.415913	0.571645	1.55263	0	0	0.0567135	-0.258905	0.441835	0.613443	1.5708	0	0
20.04	2.96525	1.36299	-1.27964	0.661094	-0.186782	0.950036	-0.255509	0.0409985	-0.0500871	0.25158	-0.192299	0	0	-0.225963	-0.100585	-0.0532506	0.325992	-0.138644	0	0	-0.242646	0.0806322	-0.0472487	-0.00490796	-0.323721	0.418592	0.572007	1.54801	0	0	0.0567805	-0.259164	0.44345	0.614456	1.5708	0	0
20.05	2.96568	1.36279	-1.27995	0.661173	-0.186957	0.950032	-0.255669	0.0411101	-0.0499549	0.251301	-0.192493	0	0	-0.225833	-0.100615	-0.0531947	0.326236	-0.13856	0	0	-0.243395	0.0804454	-0.047398	-0.00451308	-0.324243	0.421264	0.572548	1.54357	0	0	0.0571498	-0.259158	0.444845	0.615394	1.5708	0	0
20.06	2.96607	1.36259	-1.28008	0.66123	-0.187134	0.950035	-0.255839	0.0412688	-0.0497784	0.250963	-0.19266	0	0	-0.225593	-0.100624	-0.0527198	0.326665	-0.138455	0	0	-0.244126	0.08034	-0.0476628	-0.00419615	-0.324813	0.423914	0.573291	1.53931	0	0	0.0576001	-0.258759	0.445425	0.616057	1.5708	0	0
20.07	2.96553	1.36259	-1.27994	0.661344	-0.187212	0.950034	-0.255797	0.0413504	-0.0499859	0.250503	-0.193031	0	0	-0.225498	-0.100731	-0.0533552	0.32678	-0.138575	0	0	-0.244469	0.0801643	-0.0473472	-0.00405424	-0.325321	0.426593	0.573925	1.53527	0	0	0.0575588	-0.258422	0.445887	0.616755	1.5708	0	0
20.08	2.96492	1.36241	-1.27965	0.661438	-0.187313	0.950037	-0.255938	0.0415179	-0.0501751	0.250034	-0.193517	0	0	-0.225565	-0.100933	-0.0538929	0.326845	-0.138737	0	0	-0.245029	0.0800868	-0.0471438	-0.00384068	-0.325878	0.429324	0.574714	1.53142	0	0	0.0574682	-0.258328	0.446917	0.617514	1.5708	0	0
20.09	2.96094	1.36479	-1.27599	0.661547	-0.187381	0.949863	-0.252141	0.0415498	-0.0502366	0.252664	-0.190529	0	0	-0.221848	-0.101118	-0.0539546	0.329234	-0.136605	0	0	-0.243106	0.0795082	-0.0459838	-0.00772164	-0.318168	0.400254	0.571777	1.56632	0	0	0.0577553	-0.257411	0.446728	0.617388	1.5708	0	0
20.1	2.96174	1.36386	-1.27696	0.661661	-0.187486	0.94995	-0.253778	0.0418665	-0.0497787	0.250603	-0.192276	0	0	-0.223067	-0.101206	-0.0539983	0.328382	-0.137619	0	0	-0.2446	0.0794123	-0.0456498	-0.00774141	-0.31954	0.404821	0.573788	1.56022	0	0	0.0586053	-0.257299	0.448676	0.61743	1.5708	0	0
20.11	2.96236	1.36341	-1.27778	0.661757	-0.187587	0.950007	-0.254653	0.0419688	-0.0494546	0.249263	-0.19337	0	0	-0.223566	-0.101303	-0.0543302	0.328101	-0.138139	0	0	-0.245605	0.0791584	-0.0453869	-0.00794976	-0.320709	0.408394	0.575842	1.55337	0	0	0.0590568	-0.257101	0.449628	0.617548	1.5708	0	0
20.12	2.96409	1.36333	-1.2794	0.661716	-0.187708	0.950041	-0.254941	0.0414392	-0.0503377	0.248662	-0.194132	0	0	-0.223281	-0.101178	-0.0558534	0.328641	-0.138769	0	0	-0.246334	0.078774	-0.0455757	-0.0081978	-0.321961	0.411394	0.577915	1.5461	0	0	0.0595129	-0.256603	0.449984	0.617225	1.5708	0	0
20.13	2.9662	1.36362	-1.28134	0.661573	-0.187844	0.950035	-0.254688	0.0405178	-0.051787	0.248557	-0.194696	0	0	-0.222285	-0.100909	-0.0584582	0.330008	-0.139498	0	0	-0.246713	0.0783043	-0.0459044	-0.00848915	-0.323265	0.414002	0.57986	1.5385	0	0	0.0598214	-0.256052	0.450397	0.616964	1.5708	0	0
20.14	2.96385	1.36366	-1.2794	0.661741	-0.187905	0.950022	-0.254742	0.0411796	-0.0514262	0.247736	-0.195137	0	0	-0.222069	-0.101402	-0.0580461	0.330336	-0.139505	0	0	-0.246966	0.0783458	-0.0454221	-0.00882744	-0.32395	0.416393	0.581342	1.53058	0	0	0.0599183	-0.255849	0.450079	0.616896	1.5708	0	0
20.15	2.96472	1.36381	-1.2803	0.661738	-0.187986	0.950029	-0.254854	0.0408299	-0.0522809	0.247101	-0.195562	0	0	-0.22168	-0.101285	-0.0594256	0.33069	-0.139556	0	0	-0.247179	0.0780882	-0.0454443	-0.00909534	-0.324981	0.418989	0.582932	1.52289	0	0	0.0602484	-0.255095	0.450069	0.616184	1.5708	0	0
20.16	2.96379	1.36381	-1.27958	0.661854	-0.188007	0.950035	-0.255253	0.0411463	-0.0522504	0.246026	-0.195944	0	0	-0.221848	-0.101471	-0.0593805	0.330225	-0.139402	0	0	-0.247272	0.0780529	-0.0451323	-0.00936162	-0.325979	0.421997	0.584423	1.51568	0	0	0.0603391	-0.254805	0.450401	0.615847	1.5708	0	0
20.17	2.96684	1.36403	-1.28248	0.661731	-0.18808	0.95007	-0.255541	0.0401139	-0.053414	0.245202	-0.196493	0	0	-0.221468	-0.100958	-0.061725	0.330544	-0.139999	0	0	-0.247479	0.077363	-0.0453231	-0.0097044	-0.32765	0.425624	0.586386	1.5095	0	0	0.0606676	-0.254036	0.450156	0.615066	1.5708	0	0
20.18	2.96449	1.36697	-1.28012	0.661671	-0.188096	0.949885	-0.251598	0.0393904	-0.0542768	0.247573	-0.193306	0	0	-0.216961	-0.100825	-0.0633261	0.333825	-0.138322	0	0	-0.244762	0.0765252	-0.0455508	-0.0126268	-0.321383	0.401943	0.583567	1.54264	0	0	0.0594763	-0.252567	0.4454	0.614758	1.5708	0	0
20.19	2.96547	1.36593	-1.28104	0.661718	-0.188129	0.949984	-0.253826	0.0396834	-0.054563	0.244772	-0.195359	0	0	-0.218543	-0.100947	-0.0634214	0.332749	-0.139324	0	0	-0.245945	0.0763697	-0.0448044	-0.0129549	-0.323511	0.407328	0.585695	1.53572	0	0	0.060384	-0.252815	0.44772	0.614489	1.5708	0	0
